<svg xmlns="http://www.w3.org/2000/svg" width="149" height="55" fill="none">
  <path fill="#24C48E" fill-rule="evenodd" d="M14.7637 1.05437C18.9112.351458 23.0587 0 27.2062 0c4.1475 0 8.295.351458 12.4425 1.05437 7.02 1.18975 12.5196 6.68933 13.7094 13.70933.7029 4.1475 1.0543 8.295 1.0543 12.4425 0 4.1475-.3514 8.295-1.0543 12.4425-1.1898 7.02-6.6894 12.5196-13.7094 13.7094-4.1475.7029-8.295 1.0543-12.4425 1.0543-4.1475 0-8.295-.3514-12.4425-1.0543-7.02-1.1898-12.51958-6.6894-13.70933-13.7094C.351458 35.5012 0 31.3537 0 27.2062c0-4.1475.351458-8.295 1.05437-12.4425C2.24412 7.7437 7.7437 2.24412 14.7637 1.05437Z" clip-rule="evenodd"/>
  <g filter="url(#a)">
    <path fill="#03030A" d="M24.0612 24.9424h5.4253c.9554 0 1.7402-.2223 2.3544-.6668.6142-.4445.9213-1.1669.9213-2.1672 0-.5556-.1024-1.0113-.3071-1.3669-.2048-.3557-.4777-.6335-.8189-.8336-.3413-.2-.7337-.3389-1.1772-.4167-.4436-.0778-.9043-.1167-1.382-.1167h-5.0158v5.5679Zm-5.3571-9.6355h11.4648c1.1602 0 2.2179.1 3.1733.3001.9554.2 1.7743.5278 2.4568.9835.6824.4557 1.2113 1.0614 1.5866 1.8171.3754.7557.563 1.6893.563 2.8006 0 1.2003-.2786 2.2005-.8359 3.0007-.5574.8002-1.382 1.4559-2.4739 1.9671 1.5014.4224 2.6217 1.1614 3.361 2.2172.7393 1.0558 1.109 2.3283 1.109 3.8175 0 1.2003-.2389 2.2394-.7166 3.1174-.4777.878-1.1203 1.5948-1.9279 2.1505-.8075.5557-1.7288.9669-2.7638 1.2336-1.035.2668-2.0985.4001-3.1904.4001h-11.806V15.3069Zm5.3571 19.7378h5.7324c.5232 0 1.0236-.05 1.5013-.15.4777-.1.8986-.2667 1.2625-.5001.364-.2334.654-.5501.8701-.9502.2161-.4001.3242-.9114.3242-1.5337 0-1.2225-.3526-2.0949-1.0578-2.6173-.7052-.5223-1.6378-.7835-2.7979-.7835h-5.8348v6.5348Z"/>
  </g>
  <path fill="#fff" d="M24.0612 24.9424h5.4253c.9554 0 1.7402-.2223 2.3544-.6668.6142-.4445.9213-1.1669.9213-2.1672 0-.5556-.1024-1.0113-.3071-1.3669-.2048-.3557-.4777-.6335-.8189-.8336-.3413-.2-.7337-.3389-1.1772-.4167-.4436-.0778-.9043-.1167-1.382-.1167h-5.0158v5.5679Zm-5.3571-9.6355h11.4648c1.1602 0 2.2179.1 3.1733.3001.9554.2 1.7743.5278 2.4568.9835.6824.4557 1.2113 1.0614 1.5866 1.8171.3754.7557.563 1.6893.563 2.8006 0 1.2003-.2786 2.2005-.8359 3.0007-.5574.8002-1.382 1.4559-2.4739 1.9671 1.5014.4224 2.6217 1.1614 3.361 2.2172.7393 1.0558 1.109 2.3283 1.109 3.8175 0 1.2003-.2389 2.2394-.7166 3.1174-.4777.878-1.1203 1.5948-1.9279 2.1505-.8075.5557-1.7288.9669-2.7638 1.2336-1.035.2668-2.0985.4001-3.1904.4001h-11.806V15.3069Zm5.3571 19.7378h5.7324c.5232 0 1.0236-.05 1.5013-.15.4777-.1.8986-.2667 1.2625-.5001.364-.2334.654-.5501.8701-.9502.2161-.4001.3242-.9114.3242-1.5337 0-1.2225-.3526-2.0949-1.0578-2.6173-.7052-.5223-1.6378-.7835-2.7979-.7835h-5.8348v6.5348Z"/>
  <path fill="#fff" d="M24.0612 24.9424h5.4253c.9554 0 1.7402-.2223 2.3544-.6668.6142-.4445.9213-1.1669.9213-2.1672 0-.5556-.1024-1.0113-.3071-1.3669-.2048-.3557-.4777-.6335-.8189-.8336-.3413-.2-.7337-.3389-1.1772-.4167-.4436-.0778-.9043-.1167-1.382-.1167h-5.0158v5.5679Zm-5.3571-9.6355h11.4648c1.1602 0 2.2179.1 3.1733.3001.9554.2 1.7743.5278 2.4568.9835.6824.4557 1.2113 1.0614 1.5866 1.8171.3754.7557.563 1.6893.563 2.8006 0 1.2003-.2786 2.2005-.8359 3.0007-.5574.8002-1.382 1.4559-2.4739 1.9671 1.5014.4224 2.6217 1.1614 3.361 2.2172.7393 1.0558 1.109 2.3283 1.109 3.8175 0 1.2003-.2389 2.2394-.7166 3.1174-.4777.878-1.1203 1.5948-1.9279 2.1505-.8075.5557-1.7288.9669-2.7638 1.2336-1.035.2668-2.0985.4001-3.1904.4001h-11.806V15.3069Zm5.3571 19.7378h5.7324c.5232 0 1.0236-.05 1.5013-.15.4777-.1.8986-.2667 1.2625-.5001.364-.2334.654-.5501.8701-.9502.2161-.4001.3242-.9114.3242-1.5337 0-1.2225-.3526-2.0949-1.0578-2.6173-.7052-.5223-1.6378-.7835-2.7979-.7835h-5.8348v6.5348Z"/>
  <path fill="#24C48E" fill-rule="evenodd" d="M82.7847 32.9643c0 .9829-.201 1.8375-.6029 2.564-.4019.7264-.9518 1.33-1.6498 1.8108-.6981.4807-1.5124.8439-2.4431 1.0896-.9307.2457-1.9143.3686-2.9508.3686H64.1602V16.0422h12.5326c.7827 0 1.4913.1709 2.1258.5128.6346.3419 1.174.7852 1.6182 1.3301.4442.5448.7879 1.1644 1.0311 1.8588.2433.6944.3649 1.4049.3649 2.1313 0 1.0897-.2697 2.1153-.8091 3.0768-.5393.9614-1.3484 1.6879-2.4272 2.1793 1.2903.3846 2.3109 1.0683 3.0618 2.0512.7509.9828 1.1264 2.2434 1.1264 3.7818Zm-5.2987-1.0576c0-.7051-.2009-1.3034-.6028-1.7948-.4019-.4914-.9095-.7371-1.523-.7371h-5.9966v4.9676h5.7745c.6769 0 1.2374-.2243 1.6816-.673.4442-.4487.6663-1.0363.6663-1.7627Zm-8.1224-11.3776v4.7113h5.1082c.5712 0 1.0788-.1923 1.523-.5769.4442-.3846.6663-.9828.6663-1.7948 0-.7478-.1957-1.3247-.587-1.7306-.3913-.406-.8619-.609-1.4119-.609h-5.2986Zm16.0228-4.6145h5.0765v16.8895c0 1.2819.5394 1.9229 1.6182 1.9229.2538 0 .534-.0374.8408-.1121.3067-.0748.5869-.187.8408-.3366l.6663 3.846c-.6346.2991-1.3644.5341-2.1893.7051-.8249.1709-1.597.2563-2.3162.2563-1.4595 0-2.5805-.3845-3.3632-1.1537-.7826-.7692-1.1739-1.8803-1.1739-3.3332V15.9146Zm10.2148 25.4146c.423.1496.8196.2564 1.1898.3205.3702.0641.7033.0961.9994.0961.6135 0 1.0894-.2136 1.4278-.6409.3384-.4274.6451-1.1965.9198-2.3076l-6.3453-16.8259h5.2351l3.8712 12.4351 3.331-12.4351h4.759l-6.345 19.5501c-.444 1.3888-1.238 2.5159-2.38 3.3812-1.142.8654-2.4958 1.298-4.0611 1.298-.423 0-.8514-.0374-1.285-.1122-.4336-.0747-.8725-.1976-1.3167-.3685v-4.3908Zm33.4418-2.5319h-5.077v-9.4546c0-1.111-.206-1.9176-.618-2.4197-.413-.5021-.958-.7532-1.634-.7532-.36 0-.72.0748-1.079.2244-.36.1495-.709.3579-1.047.6249-.339.2671-.64.5823-.904.9455-.265.3632-.471.7585-.619 1.1858v9.6469h-5.077V21.9714h4.569v2.8203c.614-1.0042 1.481-1.7787 2.602-2.3236 1.121-.5448 2.411-.8172 3.871-.8172 1.079 0 1.946.1976 2.601.5929.656.3953 1.164.908 1.523 1.5383.36.6304.598 1.3194.714 2.0672.117.7479.175 1.4743.175 2.1794v10.7686Zm14.563 0-4.347-6.7624-1.776 1.8588v4.9036h-5.077V15.9146h5.077v13.0435l5.615-6.9867h5.394l-5.996 7.2431L149 38.7973h-5.394Z" clip-rule="evenodd"/>
  <defs>
    <filter id="a" width="37.1466" height="40.5477" x="10.333" y="12.7955" color-interpolation-filters="sRGB" filterUnits="userSpaceOnUse">
      <feFlood flood-opacity="0" result="BackgroundImageFix"/>
      <feColorMatrix in="SourceAlpha" result="hardAlpha" values="0 0 0 0 0 0 0 0 0 0 0 0 0 0 0 0 0 0 127 0"/>
      <feOffset dy="5.8598"/>
      <feGaussianBlur stdDeviation="4.18557"/>
      <feColorMatrix values="0 0 0 0 0.0588235 0 0 0 0 0.188235 0 0 0 0 0.270588 0 0 0 0.2 0"/>
      <feBlend in2="BackgroundImageFix" result="effect1_dropShadow_2020_59539"/>
      <feBlend in="SourceGraphic" in2="effect1_dropShadow_2020_59539" result="shape"/>
    </filter>
  </defs>
</svg>
