<svg width="122" height="122" viewBox="0 0 122 122" fill="none" xmlns="http://www.w3.org/2000/svg">
<circle cx="60.8939" cy="60.8939" r="60.8939" fill="url(#paint0_linear_66_24)"/>
<path d="M69.6395 99.9751H43.6254V46.9048V45.8363V20.9039H69.6395L80.8889 32.3016V48.6857L69.6395 60.0833L80.8889 71.481V88.5775L69.6395 99.9751Z" fill="white"/>
<path d="M59.0762 42.7166H49.0787V92.7041H59.0762V42.7166Z" fill="url(#paint1_linear_66_24)"/>
<path d="M59.0762 28.1748H49.0787V39.0812H59.0762V28.1748Z" fill="url(#paint2_linear_66_24)"/>
<path d="M76.7991 47.2609L69.5282 54.5318H65.4383V26.3571H69.5282L76.7991 33.628V47.2609Z" fill="#D9D9D9"/>
<path d="M76.7991 47.2609L69.5282 54.5318H65.4383V26.3571H69.5282L76.7991 33.628V47.2609Z" fill="url(#paint3_linear_66_24)"/>
<path d="M76.7991 85.4332L69.5282 92.7041H65.4383V64.5293H69.5282L76.7991 71.8002V85.4332Z" fill="#D9D9D9"/>
<path d="M76.7991 85.4332L69.5282 92.7041H65.4383V64.5293H69.5282L76.7991 71.8002V85.4332Z" fill="url(#paint4_linear_66_24)"/>
<defs>
<linearGradient id="paint0_linear_66_24" x1="60.8939" y1="0" x2="60.8939" y2="121.788" gradientUnits="userSpaceOnUse">
<stop stop-color="#FF63EA"/>
<stop offset="1" stop-color="#0029CF"/>
</linearGradient>
<linearGradient id="paint1_linear_66_24" x1="54.0775" y1="42.7166" x2="54.0775" y2="92.7041" gradientUnits="userSpaceOnUse">
<stop stop-color="#FF63EA"/>
<stop offset="1" stop-color="#0029CF"/>
</linearGradient>
<linearGradient id="paint2_linear_66_24" x1="54.0775" y1="28.1748" x2="54.0775" y2="39.0812" gradientUnits="userSpaceOnUse">
<stop stop-color="#FF63EA"/>
<stop offset="0.9999" stop-color="#E45DE7"/>
</linearGradient>
<linearGradient id="paint3_linear_66_24" x1="73.1636" y1="26.3571" x2="73.1636" y2="54.5318" gradientUnits="userSpaceOnUse">
<stop stop-color="#FF63EA"/>
<stop offset="1" stop-color="#0029CF"/>
</linearGradient>
<linearGradient id="paint4_linear_66_24" x1="73.1636" y1="64.5293" x2="73.1636" y2="92.7041" gradientUnits="userSpaceOnUse">
<stop stop-color="#FF63EA"/>
<stop offset="1" stop-color="#0029CF"/>
</linearGradient>
</defs>
</svg>
