<svg width="446" height="166" viewBox="0 0 446 166" fill="none" xmlns="http://www.w3.org/2000/svg">
<rect width="446" height="166" fill="#171717"/>
<path d="M193.068 121V51.1818H221.023C226.159 51.1818 230.443 51.9432 233.875 53.4659C237.307 54.9886 239.886 57.1023 241.614 59.8068C243.341 62.4886 244.205 65.5795 244.205 69.0795C244.205 71.8068 243.659 74.2045 242.568 76.2727C241.477 78.3182 239.977 80 238.068 81.3182C236.182 82.6136 234.023 83.5341 231.591 84.0795V84.7614C234.25 84.875 236.739 85.625 239.057 87.0114C241.398 88.3977 243.295 90.3409 244.75 92.8409C246.205 95.3182 246.932 98.2727 246.932 101.705C246.932 105.409 246.011 108.716 244.17 111.625C242.352 114.511 239.659 116.795 236.091 118.477C232.523 120.159 228.125 121 222.898 121H193.068ZM207.83 108.932H219.864C223.977 108.932 226.977 108.148 228.864 106.58C230.75 104.989 231.693 102.875 231.693 100.239C231.693 98.3068 231.227 96.6023 230.295 95.125C229.364 93.6477 228.034 92.4886 226.307 91.6477C224.602 90.8068 222.568 90.3864 220.205 90.3864H207.83V108.932ZM207.83 80.3977H218.773C220.795 80.3977 222.591 80.0455 224.159 79.3409C225.75 78.6136 227 77.5909 227.909 76.2727C228.841 74.9545 229.307 73.375 229.307 71.5341C229.307 69.0114 228.409 66.9773 226.614 65.4318C224.841 63.8864 222.318 63.1136 219.045 63.1136H207.83V80.3977ZM271.298 51.1818V121H256.537V51.1818H271.298ZM329.739 73.75C329.261 72.0909 328.591 70.625 327.727 69.3523C326.864 68.0568 325.807 66.9659 324.557 66.0795C323.33 65.1705 321.92 64.4773 320.33 64C318.761 63.5227 317.023 63.2841 315.114 63.2841C311.545 63.2841 308.409 64.1705 305.705 65.9432C303.023 67.7159 300.932 70.2955 299.432 73.6818C297.932 77.0455 297.182 81.1591 297.182 86.0227C297.182 90.8864 297.92 95.0227 299.398 98.4318C300.875 101.841 302.966 104.443 305.67 106.239C308.375 108.011 311.568 108.898 315.25 108.898C318.591 108.898 321.443 108.307 323.807 107.125C326.193 105.92 328.011 104.227 329.261 102.045C330.534 99.8636 331.17 97.2841 331.17 94.3068L334.17 94.75H316.17V83.6364H345.386V92.4318C345.386 98.5682 344.091 103.841 341.5 108.25C338.909 112.636 335.341 116.023 330.795 118.409C326.25 120.773 321.045 121.955 315.182 121.955C308.636 121.955 302.886 120.511 297.932 117.625C292.977 114.716 289.114 110.591 286.341 105.25C283.591 99.8864 282.216 93.5227 282.216 86.1591C282.216 80.5 283.034 75.4545 284.67 71.0227C286.33 66.5682 288.648 62.7955 291.625 59.7045C294.602 56.6136 298.068 54.2614 302.023 52.6477C305.977 51.0341 310.261 50.2273 314.875 50.2273C318.83 50.2273 322.511 50.8068 325.92 51.9659C329.33 53.1023 332.352 54.7159 334.989 56.8068C337.648 58.8977 339.818 61.3864 341.5 64.2727C343.182 67.1364 344.261 70.2955 344.739 73.75H329.739ZM356.474 121V51.1818H402.702V63.3523H371.236V79.9886H399.634V92.1591H371.236V121H356.474Z" fill="white"/>
<circle cx="107.894" cy="85.8939" r="60.8939" fill="url(#paint0_linear_66_31)"/>
<path d="M116.64 124.975H90.6254V71.9048V70.8363V45.9039H116.64L127.889 57.3016V73.6857L116.64 85.0833L127.889 96.481V113.577L116.64 124.975Z" fill="white"/>
<path d="M106.076 67.7166H96.0787V117.704H106.076V67.7166Z" fill="url(#paint1_linear_66_31)"/>
<path d="M106.076 53.1748H96.0787V64.0812H106.076V53.1748Z" fill="url(#paint2_linear_66_31)"/>
<path d="M123.799 72.2609L116.528 79.5318H112.438V51.3571H116.528L123.799 58.628V72.2609Z" fill="#D9D9D9"/>
<path d="M123.799 72.2609L116.528 79.5318H112.438V51.3571H116.528L123.799 58.628V72.2609Z" fill="url(#paint3_linear_66_31)"/>
<path d="M123.799 110.433L116.528 117.704H112.438V89.5293H116.528L123.799 96.8002V110.433Z" fill="#D9D9D9"/>
<path d="M123.799 110.433L116.528 117.704H112.438V89.5293H116.528L123.799 96.8002V110.433Z" fill="url(#paint4_linear_66_31)"/>
<defs>
<linearGradient id="paint0_linear_66_31" x1="107.894" y1="25" x2="107.894" y2="146.788" gradientUnits="userSpaceOnUse">
<stop stop-color="#FF63EA"/>
<stop offset="1" stop-color="#0029CF"/>
</linearGradient>
<linearGradient id="paint1_linear_66_31" x1="101.077" y1="67.7166" x2="101.077" y2="117.704" gradientUnits="userSpaceOnUse">
<stop stop-color="#FF63EA"/>
<stop offset="1" stop-color="#0029CF"/>
</linearGradient>
<linearGradient id="paint2_linear_66_31" x1="101.077" y1="53.1748" x2="101.077" y2="64.0812" gradientUnits="userSpaceOnUse">
<stop stop-color="#FF63EA"/>
<stop offset="0.9999" stop-color="#E45DE7"/>
</linearGradient>
<linearGradient id="paint3_linear_66_31" x1="120.164" y1="51.3571" x2="120.164" y2="79.5318" gradientUnits="userSpaceOnUse">
<stop stop-color="#FF63EA"/>
<stop offset="1" stop-color="#0029CF"/>
</linearGradient>
<linearGradient id="paint4_linear_66_31" x1="120.164" y1="89.5293" x2="120.164" y2="117.704" gradientUnits="userSpaceOnUse">
<stop stop-color="#FF63EA"/>
<stop offset="1" stop-color="#0029CF"/>
</linearGradient>
</defs>
</svg>
